<svg xmlns="http://www.w3.org/2000/svg" fill="none" viewBox="0 0 120 120">
  <g clip-path="url(#a)">
    <mask id="b" width="120" height="120" x="0" y="0" maskUnits="userSpaceOnUse" style="mask-type:luminance">
      <path fill="#fff" d="M0 0h120v120H0V0Z"/>
    </mask>
    <g mask="url(#b)">
      <path fill="#121417" stroke="url(#c)" stroke-width="4" d="M114 60c0 29.824-24.176 54-54 54S6 89.824 6 60 30.176 6 60 6s54 24.176 54 54Z"/>
      <path fill="#fff" d="M83.606 45.738H75.97c-.849 0-1.697-.386-2.315-1.001l-3.085-3.468c-.926-1.001-2.391-1.078-3.471-.23l-.232.23-2.623 3.004c-.849 1.002-2.16 1.542-3.471 1.542H19.038A44.985 44.985 0 0 0 16.8 56.447h39.498c.694 0 1.388-.308 1.85-.77l3.704-3.852c.462-.463 1.08-.771 1.774-.771h.154c.694 0 1.39.308 1.852.847l3.086 3.467c.616.694 1.465 1.079 2.314 1.079H103.2a44.945 44.945 0 0 0-2.237-10.633H83.606v-.076ZM58.302 67.001l-3.085-3.466c-.926-1.002-2.392-1.08-3.472-.232l-.231.23-2.7 3.005c-.849 1.002-2.083 1.541-3.395 1.541H17.418c.694 3.699 1.928 7.32 3.548 10.787h19.672c.694 0 1.31-.309 1.85-.771l3.704-3.852c.462-.462 1.08-.77 1.774-.77h.154c.694 0 1.389.308 1.852.847l3.086 3.467c.616.694 1.465 1.079 2.314 1.079h43.662c1.62-3.39 2.855-7.01 3.549-10.787H60.619c-.926 0-1.775-.384-2.315-1.078h-.002Zm15.12-33.591 3.703-3.853c.463-.461 1.08-.77 1.774-.77h.154a2.7 2.7 0 0 1 1.852.77l3.086 3.467c.617.694 1.466 1.001 2.314 1.001h8.332c-14.503-19.104-41.735-22.88-60.943-8.473a44.178 44.178 0 0 0-8.485 8.475h46.363c.77.154 1.388-.154 1.85-.617ZM43.569 89.499c-.926 0-1.775-.385-2.315-1.002l-3.085-3.466a2.448 2.448 0 0 0-3.47-.155l-.156.154-2.7 3.005c-.849 1.001-2.083 1.541-3.394 1.541h-.155c16.278 17.412 43.818 18.259 61.329 1.85.695-.618 1.311-1.31 2.006-2.004h-48.06v.077Z"/>
    </g>
  </g>
  <defs>
    <linearGradient id="c" x1="5.018" x2="122.243" y1="5.018" y2="109.795" gradientUnits="userSpaceOnUse">
      <stop stop-color="#61DD89"/>
      <stop offset="1" stop-color="#05EEEF"/>
    </linearGradient>
    <clipPath id="a">
      <path fill="#fff" d="M0 0h120v120H0z"/>
    </clipPath>
  </defs>
</svg>